<svg width="32" height="32" viewBox="0 0 32 32" fill="none" xmlns="http://www.w3.org/2000/svg">
<path d="M16.0003 2.71647C19.8213 2.71649 22.5448 3.12834 24.1781 3.94498C24.9928 4.35243 25.6017 4.89329 26.0072 5.56705C26.4127 6.24111 26.6165 7.05153 26.6165 7.99967V20.6667C26.6165 21.9649 26.1718 23.0576 25.2816 23.9479C24.3913 24.8382 23.2985 25.2828 22.0003 25.2829H21.8353L21.972 25.3747L23.9495 26.693V27.9499H8.05013V26.693L10.1654 25.2829H10.0003C8.70211 25.2829 7.60936 24.8381 6.71908 23.9479C5.82877 23.0576 5.38314 21.965 5.38314 20.6667V7.99967C5.38319 7.08557 5.59502 6.29627 6.01693 5.63053C6.43893 4.96471 7.07331 4.41926 7.9222 3.99479C9.62252 3.14463 12.3133 2.71647 16.0003 2.71647ZM7.94955 20.6667C7.94955 21.2565 8.14361 21.7474 8.53158 22.1354C8.91952 22.5233 9.41056 22.7165 10.0003 22.7165H22.0003C22.59 22.7164 23.0812 22.5233 23.4691 22.1354C23.8569 21.7475 24.0501 21.2564 24.0501 20.6667V15.9499H7.94955V20.6667ZM11.3333 17.3835C11.8756 17.3835 12.3349 17.5726 12.7142 17.9518C13.0936 18.3312 13.2835 18.7912 13.2835 19.3337C13.2835 19.876 13.0935 20.3352 12.7142 20.7145C12.3348 21.0938 11.8757 21.2829 11.3333 21.2829C10.791 21.2829 10.3319 21.0938 9.95248 20.7145C9.57315 20.3352 9.38322 19.876 9.38314 19.3337C9.38314 18.7912 9.57307 18.3312 9.95248 17.9518C10.3318 17.5726 10.791 17.3835 11.3333 17.3835ZM20.6663 17.3835C21.2088 17.3835 21.6688 17.5724 22.0482 17.9518C22.4276 18.3312 22.6165 18.7912 22.6165 19.3337C22.6165 19.8759 22.4274 20.3352 22.0482 20.7145C21.6688 21.0939 21.2088 21.2829 20.6663 21.2829C20.124 21.2828 19.6648 21.0938 19.2855 20.7145C18.9062 20.3352 18.7172 19.876 18.7171 19.3337C18.7171 18.7912 18.9061 18.3312 19.2855 17.9518C19.6648 17.5726 20.1241 17.3835 20.6663 17.3835ZM7.94955 13.3835H14.7171V9.28288H7.94955V13.3835ZM17.2835 13.3835H24.0501V9.28288H17.2835V13.3835ZM16.0003 5.28288C14.0877 5.28288 12.501 5.39494 11.2415 5.61784C9.98369 5.84046 9.08842 6.17494 8.56673 6.62858L8.46615 6.71647H23.6458L23.5706 6.63346C23.3637 6.40348 23.049 6.20501 22.6312 6.03678C22.2131 5.86843 21.6886 5.7293 21.0589 5.61784C19.7993 5.39489 18.1126 5.28289 16.0003 5.28288Z" fill="#00A40E" stroke="black" stroke-width="0.1"/>
<path d="M14.1216 19.1928L17.8785 19.1928L16.0005 21.6332L14.1216 19.1928Z" fill="#00A40E" stroke="black" stroke-width="0.1"/>
</svg>
